%TF.GenerationSoftware,KiCad,Pcbnew,6.0.11-2627ca5db0~126~ubuntu20.04.1*%
%TF.CreationDate,2023-04-04T23:53:03+02:00*%
%TF.ProjectId,PCB chowndolo,50434220-6368-46f7-976e-646f6c6f2e6b,rev?*%
%TF.SameCoordinates,Original*%
%TF.FileFunction,Paste,Top*%
%TF.FilePolarity,Positive*%
%FSLAX46Y46*%
G04 Gerber Fmt 4.6, Leading zero omitted, Abs format (unit mm)*
G04 Created by KiCad (PCBNEW 6.0.11-2627ca5db0~126~ubuntu20.04.1) date 2023-04-04 23:53:03*
%MOMM*%
%LPD*%
G01*
G04 APERTURE LIST*
G04 Aperture macros list*
%AMRoundRect*
0 Rectangle with rounded corners*
0 $1 Rounding radius*
0 $2 $3 $4 $5 $6 $7 $8 $9 X,Y pos of 4 corners*
0 Add a 4 corners polygon primitive as box body*
4,1,4,$2,$3,$4,$5,$6,$7,$8,$9,$2,$3,0*
0 Add four circle primitives for the rounded corners*
1,1,$1+$1,$2,$3*
1,1,$1+$1,$4,$5*
1,1,$1+$1,$6,$7*
1,1,$1+$1,$8,$9*
0 Add four rect primitives between the rounded corners*
20,1,$1+$1,$2,$3,$4,$5,0*
20,1,$1+$1,$4,$5,$6,$7,0*
20,1,$1+$1,$6,$7,$8,$9,0*
20,1,$1+$1,$8,$9,$2,$3,0*%
G04 Aperture macros list end*
%ADD10RoundRect,0.225000X-0.225000X-0.250000X0.225000X-0.250000X0.225000X0.250000X-0.225000X0.250000X0*%
%ADD11RoundRect,0.200000X0.200000X0.275000X-0.200000X0.275000X-0.200000X-0.275000X0.200000X-0.275000X0*%
%ADD12RoundRect,0.225000X0.225000X0.250000X-0.225000X0.250000X-0.225000X-0.250000X0.225000X-0.250000X0*%
%ADD13R,0.700000X0.300000*%
%ADD14R,0.750000X0.650000*%
%ADD15R,0.500000X0.250000*%
%ADD16RoundRect,0.100000X0.712500X0.100000X-0.712500X0.100000X-0.712500X-0.100000X0.712500X-0.100000X0*%
%ADD17RoundRect,0.250000X0.325000X0.650000X-0.325000X0.650000X-0.325000X-0.650000X0.325000X-0.650000X0*%
%ADD18RoundRect,0.225000X0.250000X-0.225000X0.250000X0.225000X-0.250000X0.225000X-0.250000X-0.225000X0*%
G04 APERTURE END LIST*
D10*
%TO.C,C2*%
X123250000Y-85400000D03*
X124800000Y-85400000D03*
%TD*%
%TO.C,C3*%
X133850000Y-84600000D03*
X135400000Y-84600000D03*
%TD*%
D11*
%TO.C,R3*%
X127400000Y-102000000D03*
X125750000Y-102000000D03*
%TD*%
D12*
%TO.C,C8*%
X137200000Y-86600000D03*
X135650000Y-86600000D03*
%TD*%
D10*
%TO.C,C5*%
X123450000Y-99600000D03*
X125000000Y-99600000D03*
%TD*%
D11*
%TO.C,R1*%
X139450000Y-66800000D03*
X137800000Y-66800000D03*
%TD*%
D12*
%TO.C,C6*%
X143200000Y-66800000D03*
X141650000Y-66800000D03*
%TD*%
D11*
%TO.C,R7*%
X129050000Y-99600000D03*
X127400000Y-99600000D03*
%TD*%
D13*
%TO.C,J1*%
X143500000Y-92050000D03*
X143500000Y-92550000D03*
X143500000Y-93050000D03*
X143500000Y-93550000D03*
X143500000Y-94050000D03*
X143500000Y-94550000D03*
X143500000Y-95050000D03*
X143500000Y-95550000D03*
X143500000Y-96050000D03*
X143500000Y-96550000D03*
X143500000Y-97050000D03*
X143500000Y-97550000D03*
X141800000Y-97300000D03*
X141800000Y-96800000D03*
X141800000Y-96300000D03*
X141800000Y-95800000D03*
X141800000Y-95300000D03*
X141800000Y-94800000D03*
X141800000Y-94300000D03*
X141800000Y-93800000D03*
X141800000Y-93300000D03*
X141800000Y-92800000D03*
X141800000Y-92300000D03*
X141800000Y-91800000D03*
%TD*%
D11*
%TO.C,R8*%
X135600000Y-66800000D03*
X133950000Y-66800000D03*
%TD*%
D14*
%TO.C,U1*%
X131550000Y-86850000D03*
X131550000Y-86050000D03*
D15*
X130600000Y-85700000D03*
X130600000Y-86200000D03*
X130600000Y-86700000D03*
X130600000Y-87200000D03*
X132500000Y-87200000D03*
X132500000Y-86700000D03*
X132500000Y-86200000D03*
X132500000Y-85700000D03*
%TD*%
D16*
%TO.C,U2*%
X127112500Y-91175000D03*
X127112500Y-90525000D03*
X127112500Y-89875000D03*
X127112500Y-89225000D03*
X122887500Y-89225000D03*
X122887500Y-89875000D03*
X122887500Y-90525000D03*
X122887500Y-91175000D03*
%TD*%
D12*
%TO.C,C1*%
X143150000Y-71200000D03*
X141600000Y-71200000D03*
%TD*%
D11*
%TO.C,R6*%
X132050000Y-73400000D03*
X130400000Y-73400000D03*
%TD*%
%TO.C,R5*%
X139425000Y-71200000D03*
X137775000Y-71200000D03*
%TD*%
%TO.C,R4*%
X123000000Y-95400000D03*
X121350000Y-95400000D03*
%TD*%
D17*
%TO.C,C7*%
X128750000Y-95200000D03*
X125800000Y-95200000D03*
%TD*%
D18*
%TO.C,C4*%
X130400000Y-91150000D03*
X130400000Y-89600000D03*
%TD*%
D11*
%TO.C,R2*%
X141250000Y-86600000D03*
X139600000Y-86600000D03*
%TD*%
M02*
