%TF.GenerationSoftware,KiCad,Pcbnew,6.0.11-2627ca5db0~126~ubuntu20.04.1*%
%TF.CreationDate,2023-04-04T23:53:03+02:00*%
%TF.ProjectId,PCB chowndolo,50434220-6368-46f7-976e-646f6c6f2e6b,rev?*%
%TF.SameCoordinates,Original*%
%TF.FileFunction,Copper,L2,Bot*%
%TF.FilePolarity,Positive*%
%FSLAX46Y46*%
G04 Gerber Fmt 4.6, Leading zero omitted, Abs format (unit mm)*
G04 Created by KiCad (PCBNEW 6.0.11-2627ca5db0~126~ubuntu20.04.1) date 2023-04-04 23:53:03*
%MOMM*%
%LPD*%
G01*
G04 APERTURE LIST*
G04 Aperture macros list*
%AMRoundRect*
0 Rectangle with rounded corners*
0 $1 Rounding radius*
0 $2 $3 $4 $5 $6 $7 $8 $9 X,Y pos of 4 corners*
0 Add a 4 corners polygon primitive as box body*
4,1,4,$2,$3,$4,$5,$6,$7,$8,$9,$2,$3,0*
0 Add four circle primitives for the rounded corners*
1,1,$1+$1,$2,$3*
1,1,$1+$1,$4,$5*
1,1,$1+$1,$6,$7*
1,1,$1+$1,$8,$9*
0 Add four rect primitives between the rounded corners*
20,1,$1+$1,$2,$3,$4,$5,0*
20,1,$1+$1,$4,$5,$6,$7,0*
20,1,$1+$1,$6,$7,$8,$9,0*
20,1,$1+$1,$8,$9,$2,$3,0*%
G04 Aperture macros list end*
%TA.AperFunction,ComponentPad*%
%ADD10O,1.800000X2.800000*%
%TD*%
%TA.AperFunction,ComponentPad*%
%ADD11O,1.400000X0.800000*%
%TD*%
%TA.AperFunction,ComponentPad*%
%ADD12RoundRect,0.250000X0.620000X0.845000X-0.620000X0.845000X-0.620000X-0.845000X0.620000X-0.845000X0*%
%TD*%
%TA.AperFunction,ComponentPad*%
%ADD13O,1.740000X2.190000*%
%TD*%
%TA.AperFunction,ViaPad*%
%ADD14C,0.800000*%
%TD*%
%TA.AperFunction,Conductor*%
%ADD15C,0.250000*%
%TD*%
G04 APERTURE END LIST*
D10*
%TO.P,J3,R*%
%TO.N,N/C*%
X131000000Y-81200000D03*
%TO.P,J3,S*%
%TO.N,GND*%
X138900000Y-79200000D03*
%TO.P,J3,T*%
%TO.N,/OUTPUT0*%
X136500000Y-81200000D03*
%TD*%
D11*
%TO.P,J1,S1,SHIELD*%
%TO.N,GND*%
X141590000Y-90670000D03*
X141590000Y-98930000D03*
X135640000Y-99290000D03*
X135640000Y-90310000D03*
%TD*%
D12*
%TO.P,J2,1,Pin_1*%
%TO.N,/INPUT0*%
X128740000Y-67800000D03*
D13*
%TO.P,J2,2,Pin_2*%
%TO.N,GND*%
X126200000Y-67800000D03*
%TD*%
D14*
%TO.N,+5V*%
X122200000Y-84400000D03*
X137700000Y-94900000D03*
%TO.N,GND*%
X132200000Y-91400000D03*
%TO.N,Net-(C4-Pad1)*%
X129000000Y-87200000D03*
X129000000Y-89800000D03*
%TO.N,Net-(C5-Pad1)*%
X129000000Y-91600000D03*
X130600000Y-94400000D03*
%TO.N,-5V*%
X131600000Y-65000000D03*
X131900000Y-71700000D03*
X134200000Y-88000000D03*
X127200000Y-88000000D03*
X130400000Y-76200000D03*
%TO.N,/OUTPUT0*%
X134200000Y-78600000D03*
X135600000Y-69000000D03*
X125800000Y-97000000D03*
%TO.N,Net-(J1-PadB5)*%
X140000000Y-94400000D03*
X141250000Y-88350000D03*
%TO.N,/INPUT0*%
X128200000Y-71600000D03*
X124200000Y-102000000D03*
%TO.N,Net-(R5-Pad1)*%
X133000000Y-82800000D03*
X132200000Y-88400000D03*
%TD*%
D15*
%TO.N,+5V*%
X122200000Y-102250000D02*
X122675000Y-102725000D01*
X129875000Y-102725000D02*
X137700000Y-94900000D01*
X122200000Y-84400000D02*
X122200000Y-102250000D01*
X137700000Y-94900000D02*
X137800000Y-94800000D01*
X122675000Y-102725000D02*
X129875000Y-102725000D01*
%TO.N,GND*%
X135400000Y-89000000D02*
X135640000Y-89240000D01*
X132200000Y-89600000D02*
X132800000Y-89000000D01*
X132200000Y-91400000D02*
X132200000Y-89600000D01*
X135640000Y-89240000D02*
X135640000Y-90310000D01*
X132800000Y-89000000D02*
X135400000Y-89000000D01*
%TO.N,Net-(C4-Pad1)*%
X128600000Y-86800000D02*
X129000000Y-87200000D01*
X129000000Y-89800000D02*
X127200000Y-89800000D01*
X127200000Y-89800000D02*
X126200000Y-88800000D01*
X126200000Y-87400000D02*
X126800000Y-86800000D01*
X126200000Y-88800000D02*
X126200000Y-87400000D01*
X126800000Y-86800000D02*
X128600000Y-86800000D01*
%TO.N,Net-(C5-Pad1)*%
X129000000Y-91600000D02*
X130600000Y-93200000D01*
X130600000Y-93200000D02*
X130600000Y-94400000D01*
%TO.N,-5V*%
X132400000Y-71200000D02*
X131900000Y-71700000D01*
X129775000Y-79225000D02*
X131600000Y-77400000D01*
X129400000Y-88000000D02*
X129800000Y-87600000D01*
X131600000Y-65000000D02*
X132400000Y-65800000D01*
X129800000Y-87600000D02*
X129775000Y-87575000D01*
X132400000Y-65800000D02*
X132400000Y-71200000D01*
X131900000Y-71700000D02*
X131800000Y-71800000D01*
X130400000Y-76200000D02*
X131600000Y-77400000D01*
X127200000Y-88000000D02*
X129400000Y-88000000D01*
X131600000Y-77400000D02*
X134200000Y-80000000D01*
X134200000Y-80000000D02*
X134200000Y-88000000D01*
X129775000Y-87575000D02*
X129775000Y-79225000D01*
%TO.N,/OUTPUT0*%
X134200000Y-70400000D02*
X135600000Y-69000000D01*
X136665000Y-81365000D02*
X136665000Y-92735000D01*
X136500000Y-81200000D02*
X136665000Y-81365000D01*
X134200000Y-78600000D02*
X134200000Y-70400000D01*
X132400000Y-97000000D02*
X125800000Y-97000000D01*
X136665000Y-92735000D02*
X132400000Y-97000000D01*
%TO.N,Net-(J1-PadB5)*%
X141250000Y-88350000D02*
X141250000Y-88750000D01*
X141250000Y-88750000D02*
X140000000Y-90000000D01*
X140000000Y-90000000D02*
X140000000Y-94400000D01*
%TO.N,/INPUT0*%
X128200000Y-84400000D02*
X124800000Y-87800000D01*
X124800000Y-101400000D02*
X124200000Y-102000000D01*
X124800000Y-87800000D02*
X124800000Y-101400000D01*
X128200000Y-71600000D02*
X128200000Y-84400000D01*
%TO.N,Net-(R5-Pad1)*%
X131600000Y-84200000D02*
X131600000Y-87800000D01*
X133000000Y-82800000D02*
X131600000Y-84200000D01*
X131600000Y-87800000D02*
X132200000Y-88400000D01*
%TD*%
M02*
