%TF.GenerationSoftware,KiCad,Pcbnew,6.0.11-2627ca5db0~126~ubuntu20.04.1*%
%TF.CreationDate,2023-04-04T23:53:03+02:00*%
%TF.ProjectId,PCB chowndolo,50434220-6368-46f7-976e-646f6c6f2e6b,rev?*%
%TF.SameCoordinates,Original*%
%TF.FileFunction,Legend,Bot*%
%TF.FilePolarity,Positive*%
%FSLAX46Y46*%
G04 Gerber Fmt 4.6, Leading zero omitted, Abs format (unit mm)*
G04 Created by KiCad (PCBNEW 6.0.11-2627ca5db0~126~ubuntu20.04.1) date 2023-04-04 23:53:03*
%MOMM*%
%LPD*%
G01*
G04 APERTURE LIST*
%ADD10C,0.150000*%
G04 APERTURE END LIST*
D10*
X137847619Y-75557142D02*
X137895238Y-75604761D01*
X138038095Y-75652380D01*
X138133333Y-75652380D01*
X138276190Y-75604761D01*
X138371428Y-75509523D01*
X138419047Y-75414285D01*
X138466666Y-75223809D01*
X138466666Y-75080952D01*
X138419047Y-74890476D01*
X138371428Y-74795238D01*
X138276190Y-74700000D01*
X138133333Y-74652380D01*
X138038095Y-74652380D01*
X137895238Y-74700000D01*
X137847619Y-74747619D01*
X137419047Y-75652380D02*
X137419047Y-74652380D01*
X136990476Y-75652380D02*
X136990476Y-75128571D01*
X137038095Y-75033333D01*
X137133333Y-74985714D01*
X137276190Y-74985714D01*
X137371428Y-75033333D01*
X137419047Y-75080952D01*
X136371428Y-75652380D02*
X136466666Y-75604761D01*
X136514285Y-75557142D01*
X136561904Y-75461904D01*
X136561904Y-75176190D01*
X136514285Y-75080952D01*
X136466666Y-75033333D01*
X136371428Y-74985714D01*
X136228571Y-74985714D01*
X136133333Y-75033333D01*
X136085714Y-75080952D01*
X136038095Y-75176190D01*
X136038095Y-75461904D01*
X136085714Y-75557142D01*
X136133333Y-75604761D01*
X136228571Y-75652380D01*
X136371428Y-75652380D01*
X135704761Y-74985714D02*
X135514285Y-75652380D01*
X135323809Y-75176190D01*
X135133333Y-75652380D01*
X134942857Y-74985714D01*
X134561904Y-74985714D02*
X134561904Y-75652380D01*
X134561904Y-75080952D02*
X134514285Y-75033333D01*
X134419047Y-74985714D01*
X134276190Y-74985714D01*
X134180952Y-75033333D01*
X134133333Y-75128571D01*
X134133333Y-75652380D01*
X133228571Y-75652380D02*
X133228571Y-74652380D01*
X133228571Y-75604761D02*
X133323809Y-75652380D01*
X133514285Y-75652380D01*
X133609523Y-75604761D01*
X133657142Y-75557142D01*
X133704761Y-75461904D01*
X133704761Y-75176190D01*
X133657142Y-75080952D01*
X133609523Y-75033333D01*
X133514285Y-74985714D01*
X133323809Y-74985714D01*
X133228571Y-75033333D01*
X132609523Y-75652380D02*
X132704761Y-75604761D01*
X132752380Y-75557142D01*
X132800000Y-75461904D01*
X132800000Y-75176190D01*
X132752380Y-75080952D01*
X132704761Y-75033333D01*
X132609523Y-74985714D01*
X132466666Y-74985714D01*
X132371428Y-75033333D01*
X132323809Y-75080952D01*
X132276190Y-75176190D01*
X132276190Y-75461904D01*
X132323809Y-75557142D01*
X132371428Y-75604761D01*
X132466666Y-75652380D01*
X132609523Y-75652380D01*
X131704761Y-75652380D02*
X131800000Y-75604761D01*
X131847619Y-75509523D01*
X131847619Y-74652380D01*
X131180952Y-75652380D02*
X131276190Y-75604761D01*
X131323809Y-75557142D01*
X131371428Y-75461904D01*
X131371428Y-75176190D01*
X131323809Y-75080952D01*
X131276190Y-75033333D01*
X131180952Y-74985714D01*
X131038095Y-74985714D01*
X130942857Y-75033333D01*
X130895238Y-75080952D01*
X130847619Y-75176190D01*
X130847619Y-75461904D01*
X130895238Y-75557142D01*
X130942857Y-75604761D01*
X131038095Y-75652380D01*
X131180952Y-75652380D01*
X129657142Y-75652380D02*
X129657142Y-74652380D01*
X129180952Y-75652380D02*
X129180952Y-74652380D01*
M02*
