M48
; DRILL file {KiCad 6.0.11-2627ca5db0~126~ubuntu20.04.1} date Tue 04 Apr 2023 11:53:09 PM CEST
; FORMAT={-:-/ absolute / inch / decimal}
; #@! TF.CreationDate,2023-04-04T23:53:09+02:00
; #@! TF.GenerationSoftware,Kicad,Pcbnew,6.0.11-2627ca5db0~126~ubuntu20.04.1
; #@! TF.FileFunction,Plated,1,2,PTH
FMAT,2
INCH
; #@! TA.AperFunction,Plated,PTH,ViaDrill
T1C0.0157
; #@! TA.AperFunction,Plated,PTH,ComponentDrill
T2C0.0197
; #@! TA.AperFunction,Plated,PTH,ComponentDrill
T3C0.0394
; #@! TA.AperFunction,Plated,PTH,ComponentDrill
T4C0.0469
%
G90
G05
T1
X4.811Y-3.3228
X4.8898Y-4.0157
X4.9528Y-3.8189
X5.0079Y-3.4646
X5.0472Y-2.8189
X5.0787Y-3.4331
X5.0787Y-3.5354
X5.0787Y-3.6063
X5.1339Y-3.0
X5.1417Y-3.7165
X5.1811Y-2.5591
X5.1929Y-2.8228
X5.2047Y-3.4803
X5.2047Y-3.5984
X5.2362Y-3.2598
X5.2835Y-3.0945
X5.2835Y-3.4646
X5.3386Y-2.7165
X5.4213Y-3.7362
X5.5118Y-3.7165
X5.561Y-3.4783
T4
X4.9685Y-2.6693
X5.0685Y-2.6693
T2
G00X5.352Y-3.5555
M15
G01X5.3283Y-3.5555
M16
G05
G00X5.352Y-3.9091
M15
G01X5.3283Y-3.9091
M16
G05
G00X5.5862Y-3.5697
M15
G01X5.5626Y-3.5697
M16
G05
G00X5.5862Y-3.8949
M15
G01X5.5626Y-3.8949
M16
G05
T3
G00X5.1575Y-3.1772
M15
G01X5.1575Y-3.2165
M16
G05
G00X5.374Y-3.1772
M15
G01X5.374Y-3.2165
M16
G05
G00X5.4685Y-3.0984
M15
G01X5.4685Y-3.1378
M16
G05
T0
M30
