%TF.GenerationSoftware,KiCad,Pcbnew,6.0.11-2627ca5db0~126~ubuntu20.04.1*%
%TF.CreationDate,2023-04-04T23:53:02+02:00*%
%TF.ProjectId,PCB chowndolo,50434220-6368-46f7-976e-646f6c6f2e6b,rev?*%
%TF.SameCoordinates,Original*%
%TF.FileFunction,Copper,L1,Top*%
%TF.FilePolarity,Positive*%
%FSLAX46Y46*%
G04 Gerber Fmt 4.6, Leading zero omitted, Abs format (unit mm)*
G04 Created by KiCad (PCBNEW 6.0.11-2627ca5db0~126~ubuntu20.04.1) date 2023-04-04 23:53:02*
%MOMM*%
%LPD*%
G01*
G04 APERTURE LIST*
G04 Aperture macros list*
%AMRoundRect*
0 Rectangle with rounded corners*
0 $1 Rounding radius*
0 $2 $3 $4 $5 $6 $7 $8 $9 X,Y pos of 4 corners*
0 Add a 4 corners polygon primitive as box body*
4,1,4,$2,$3,$4,$5,$6,$7,$8,$9,$2,$3,0*
0 Add four circle primitives for the rounded corners*
1,1,$1+$1,$2,$3*
1,1,$1+$1,$4,$5*
1,1,$1+$1,$6,$7*
1,1,$1+$1,$8,$9*
0 Add four rect primitives between the rounded corners*
20,1,$1+$1,$2,$3,$4,$5,0*
20,1,$1+$1,$4,$5,$6,$7,0*
20,1,$1+$1,$6,$7,$8,$9,0*
20,1,$1+$1,$8,$9,$2,$3,0*%
G04 Aperture macros list end*
%TA.AperFunction,SMDPad,CuDef*%
%ADD10RoundRect,0.225000X-0.225000X-0.250000X0.225000X-0.250000X0.225000X0.250000X-0.225000X0.250000X0*%
%TD*%
%TA.AperFunction,SMDPad,CuDef*%
%ADD11RoundRect,0.200000X0.200000X0.275000X-0.200000X0.275000X-0.200000X-0.275000X0.200000X-0.275000X0*%
%TD*%
%TA.AperFunction,SMDPad,CuDef*%
%ADD12RoundRect,0.225000X0.225000X0.250000X-0.225000X0.250000X-0.225000X-0.250000X0.225000X-0.250000X0*%
%TD*%
%TA.AperFunction,ComponentPad*%
%ADD13O,1.800000X2.800000*%
%TD*%
%TA.AperFunction,SMDPad,CuDef*%
%ADD14R,0.700000X0.300000*%
%TD*%
%TA.AperFunction,ComponentPad*%
%ADD15O,1.400000X0.800000*%
%TD*%
%TA.AperFunction,SMDPad,CuDef*%
%ADD16R,0.500000X0.250000*%
%TD*%
%TA.AperFunction,SMDPad,CuDef*%
%ADD17R,0.900000X1.600000*%
%TD*%
%TA.AperFunction,SMDPad,CuDef*%
%ADD18RoundRect,0.100000X0.712500X0.100000X-0.712500X0.100000X-0.712500X-0.100000X0.712500X-0.100000X0*%
%TD*%
%TA.AperFunction,ComponentPad*%
%ADD19RoundRect,0.250000X0.620000X0.845000X-0.620000X0.845000X-0.620000X-0.845000X0.620000X-0.845000X0*%
%TD*%
%TA.AperFunction,ComponentPad*%
%ADD20O,1.740000X2.190000*%
%TD*%
%TA.AperFunction,SMDPad,CuDef*%
%ADD21RoundRect,0.250000X0.325000X0.650000X-0.325000X0.650000X-0.325000X-0.650000X0.325000X-0.650000X0*%
%TD*%
%TA.AperFunction,SMDPad,CuDef*%
%ADD22RoundRect,0.225000X0.250000X-0.225000X0.250000X0.225000X-0.250000X0.225000X-0.250000X-0.225000X0*%
%TD*%
%TA.AperFunction,ViaPad*%
%ADD23C,0.800000*%
%TD*%
%TA.AperFunction,Conductor*%
%ADD24C,0.250000*%
%TD*%
G04 APERTURE END LIST*
D10*
%TO.P,C2,1*%
%TO.N,+5V*%
X123250000Y-85400000D03*
%TO.P,C2,2*%
%TO.N,GND*%
X124800000Y-85400000D03*
%TD*%
%TO.P,C3,1*%
%TO.N,Net-(C3-Pad1)*%
X133850000Y-84600000D03*
%TO.P,C3,2*%
%TO.N,Net-(C3-Pad2)*%
X135400000Y-84600000D03*
%TD*%
D11*
%TO.P,R3,1*%
%TO.N,Net-(C5-Pad1)*%
X127400000Y-102000000D03*
%TO.P,R3,2*%
%TO.N,/INPUT0*%
X125750000Y-102000000D03*
%TD*%
D12*
%TO.P,C8,1*%
%TO.N,+5V*%
X137200000Y-86600000D03*
%TO.P,C8,2*%
%TO.N,-5V*%
X135650000Y-86600000D03*
%TD*%
D13*
%TO.P,J3,R*%
%TO.N,N/C*%
X131000000Y-81200000D03*
%TO.P,J3,S*%
%TO.N,GND*%
X138900000Y-79200000D03*
%TO.P,J3,T*%
%TO.N,/OUTPUT0*%
X136500000Y-81200000D03*
%TD*%
D10*
%TO.P,C5,1*%
%TO.N,Net-(C5-Pad1)*%
X123450000Y-99600000D03*
%TO.P,C5,2*%
%TO.N,Net-(C5-Pad2)*%
X125000000Y-99600000D03*
%TD*%
D11*
%TO.P,R1,1*%
%TO.N,Net-(J1-PadA5)*%
X139450000Y-66800000D03*
%TO.P,R1,2*%
%TO.N,GND*%
X137800000Y-66800000D03*
%TD*%
D12*
%TO.P,C6,1*%
%TO.N,-5V*%
X143200000Y-66800000D03*
%TO.P,C6,2*%
%TO.N,GND*%
X141650000Y-66800000D03*
%TD*%
D11*
%TO.P,R7,1*%
%TO.N,Net-(C7-Pad1)*%
X129050000Y-99600000D03*
%TO.P,R7,2*%
%TO.N,Net-(C5-Pad2)*%
X127400000Y-99600000D03*
%TD*%
D14*
%TO.P,J1,A1,GND*%
%TO.N,GND*%
X143500000Y-92050000D03*
%TO.P,J1,A2,TX1+*%
%TO.N,unconnected-(J1-PadA2)*%
X143500000Y-92550000D03*
%TO.P,J1,A3,TX1-*%
%TO.N,unconnected-(J1-PadA3)*%
X143500000Y-93050000D03*
%TO.P,J1,A4,VBUS*%
%TO.N,+5V*%
X143500000Y-93550000D03*
%TO.P,J1,A5,CC1*%
%TO.N,Net-(J1-PadA5)*%
X143500000Y-94050000D03*
%TO.P,J1,A6,D+*%
%TO.N,unconnected-(J1-PadA6)*%
X143500000Y-94550000D03*
%TO.P,J1,A7,D-*%
%TO.N,unconnected-(J1-PadA7)*%
X143500000Y-95050000D03*
%TO.P,J1,A8,SBU1*%
%TO.N,unconnected-(J1-PadA8)*%
X143500000Y-95550000D03*
%TO.P,J1,A9,VBUS*%
%TO.N,+5V*%
X143500000Y-96050000D03*
%TO.P,J1,A10,RX2-*%
%TO.N,unconnected-(J1-PadA10)*%
X143500000Y-96550000D03*
%TO.P,J1,A11,RX2+*%
%TO.N,unconnected-(J1-PadA11)*%
X143500000Y-97050000D03*
%TO.P,J1,A12,GND*%
%TO.N,GND*%
X143500000Y-97550000D03*
%TO.P,J1,B1,GND*%
X141800000Y-97300000D03*
%TO.P,J1,B2,TX2+*%
%TO.N,unconnected-(J1-PadB2)*%
X141800000Y-96800000D03*
%TO.P,J1,B3,TX2-*%
%TO.N,unconnected-(J1-PadB3)*%
X141800000Y-96300000D03*
%TO.P,J1,B4,VBUS*%
%TO.N,+5V*%
X141800000Y-95800000D03*
%TO.P,J1,B5,CC2*%
%TO.N,Net-(J1-PadB5)*%
X141800000Y-95300000D03*
%TO.P,J1,B6,D+*%
%TO.N,unconnected-(J1-PadB6)*%
X141800000Y-94800000D03*
%TO.P,J1,B7,D-*%
%TO.N,unconnected-(J1-PadB7)*%
X141800000Y-94300000D03*
%TO.P,J1,B8,SBU2*%
%TO.N,unconnected-(J1-PadB8)*%
X141800000Y-93800000D03*
%TO.P,J1,B9,VBUS*%
%TO.N,+5V*%
X141800000Y-93300000D03*
%TO.P,J1,B10,RX1-*%
%TO.N,unconnected-(J1-PadB10)*%
X141800000Y-92800000D03*
%TO.P,J1,B11,RX1+*%
%TO.N,unconnected-(J1-PadB11)*%
X141800000Y-92300000D03*
%TO.P,J1,B12,GND*%
%TO.N,GND*%
X141800000Y-91800000D03*
D15*
%TO.P,J1,S1,SHIELD*%
X141590000Y-90670000D03*
X141590000Y-98930000D03*
X135640000Y-99290000D03*
X135640000Y-90310000D03*
%TD*%
D11*
%TO.P,R8,1*%
%TO.N,/OUTPUT0*%
X135600000Y-66800000D03*
%TO.P,R8,2*%
%TO.N,GND*%
X133950000Y-66800000D03*
%TD*%
D16*
%TO.P,U1,1,VIN*%
%TO.N,+5V*%
X130600000Y-85700000D03*
%TO.P,U1,2,GND*%
%TO.N,GND*%
X130600000Y-86200000D03*
%TO.P,U1,3,CPOUT*%
%TO.N,Net-(C4-Pad1)*%
X130600000Y-86700000D03*
%TO.P,U1,4,VOUT*%
%TO.N,-5V*%
X130600000Y-87200000D03*
%TO.P,U1,5,VFB*%
%TO.N,Net-(R5-Pad1)*%
X132500000Y-87200000D03*
%TO.P,U1,6,EN*%
%TO.N,+5V*%
X132500000Y-86700000D03*
%TO.P,U1,7,C-*%
%TO.N,Net-(C3-Pad2)*%
X132500000Y-86200000D03*
%TO.P,U1,8,C+*%
%TO.N,Net-(C3-Pad1)*%
X132500000Y-85700000D03*
D17*
%TO.P,U1,9,PAD*%
%TO.N,GND*%
X131550000Y-86450000D03*
%TD*%
D18*
%TO.P,U2,1,NC*%
%TO.N,unconnected-(U2-Pad1)*%
X127112500Y-91175000D03*
%TO.P,U2,2,-*%
%TO.N,Net-(C5-Pad1)*%
X127112500Y-90525000D03*
%TO.P,U2,3,+*%
%TO.N,GND*%
X127112500Y-89875000D03*
%TO.P,U2,4,V-*%
%TO.N,-5V*%
X127112500Y-89225000D03*
%TO.P,U2,5,NC*%
%TO.N,unconnected-(U2-Pad5)*%
X122887500Y-89225000D03*
%TO.P,U2,6*%
%TO.N,Net-(C5-Pad2)*%
X122887500Y-89875000D03*
%TO.P,U2,7,V+*%
%TO.N,+5V*%
X122887500Y-90525000D03*
%TO.P,U2,8,NC*%
%TO.N,unconnected-(U2-Pad8)*%
X122887500Y-91175000D03*
%TD*%
D12*
%TO.P,C1,1*%
%TO.N,+5V*%
X143150000Y-71200000D03*
%TO.P,C1,2*%
%TO.N,GND*%
X141600000Y-71200000D03*
%TD*%
D11*
%TO.P,R6,1*%
%TO.N,Net-(R5-Pad1)*%
X132050000Y-73400000D03*
%TO.P,R6,2*%
%TO.N,-5V*%
X130400000Y-73400000D03*
%TD*%
%TO.P,R5,1*%
%TO.N,Net-(R5-Pad1)*%
X139425000Y-71200000D03*
%TO.P,R5,2*%
%TO.N,GND*%
X137775000Y-71200000D03*
%TD*%
D19*
%TO.P,J2,1,Pin_1*%
%TO.N,/INPUT0*%
X128740000Y-67800000D03*
D20*
%TO.P,J2,2,Pin_2*%
%TO.N,GND*%
X126200000Y-67800000D03*
%TD*%
D11*
%TO.P,R4,1*%
%TO.N,Net-(C5-Pad2)*%
X123000000Y-95400000D03*
%TO.P,R4,2*%
%TO.N,Net-(C5-Pad1)*%
X121350000Y-95400000D03*
%TD*%
D21*
%TO.P,C7,1*%
%TO.N,Net-(C7-Pad1)*%
X128750000Y-95200000D03*
%TO.P,C7,2*%
%TO.N,/OUTPUT0*%
X125800000Y-95200000D03*
%TD*%
D22*
%TO.P,C4,1*%
%TO.N,Net-(C4-Pad1)*%
X130400000Y-91150000D03*
%TO.P,C4,2*%
%TO.N,GND*%
X130400000Y-89600000D03*
%TD*%
D11*
%TO.P,R2,1*%
%TO.N,Net-(J1-PadB5)*%
X141250000Y-86600000D03*
%TO.P,R2,2*%
%TO.N,GND*%
X139600000Y-86600000D03*
%TD*%
D23*
%TO.N,+5V*%
X122200000Y-84400000D03*
X137700000Y-94900000D03*
%TO.N,GND*%
X132200000Y-91400000D03*
%TO.N,Net-(C4-Pad1)*%
X129000000Y-87200000D03*
X129000000Y-89800000D03*
%TO.N,Net-(C5-Pad1)*%
X129000000Y-91600000D03*
X130600000Y-94400000D03*
%TO.N,-5V*%
X131600000Y-65000000D03*
X131900000Y-71700000D03*
X134200000Y-88000000D03*
X127200000Y-88000000D03*
X130400000Y-76200000D03*
%TO.N,/OUTPUT0*%
X134200000Y-78600000D03*
X135600000Y-69000000D03*
X125800000Y-97000000D03*
%TO.N,Net-(J1-PadB5)*%
X140000000Y-94400000D03*
X141250000Y-88350000D03*
%TO.N,/INPUT0*%
X128200000Y-71600000D03*
X124200000Y-102000000D03*
%TO.N,Net-(R5-Pad1)*%
X133000000Y-82800000D03*
X132200000Y-88400000D03*
%TD*%
D24*
%TO.N,+5V*%
X142600000Y-93300000D02*
X142850000Y-93550000D01*
X134400000Y-91000000D02*
X136100000Y-92700000D01*
X138800000Y-94800000D02*
X138800000Y-93400000D01*
X141800000Y-93300000D02*
X142600000Y-93300000D01*
X139800000Y-95800000D02*
X138800000Y-94800000D01*
X121600000Y-91000000D02*
X121600000Y-92000000D01*
X121600000Y-92000000D02*
X122300000Y-92700000D01*
X122887500Y-90525000D02*
X122075000Y-90525000D01*
X122075000Y-90525000D02*
X121600000Y-91000000D01*
X141800000Y-95800000D02*
X139800000Y-95800000D01*
X137800000Y-85400000D02*
X137200000Y-85400000D01*
X143150000Y-72650000D02*
X141400000Y-74400000D01*
X130600000Y-85700000D02*
X126100000Y-85700000D01*
X141800000Y-95800000D02*
X142600000Y-95800000D01*
X134100000Y-86700000D02*
X135400000Y-85400000D01*
X142850000Y-96050000D02*
X143500000Y-96050000D01*
X136100000Y-92700000D02*
X136700000Y-93300000D01*
X123200000Y-85400000D02*
X122200000Y-84400000D01*
X142850000Y-93550000D02*
X143500000Y-93550000D01*
X134400000Y-89400000D02*
X137200000Y-86600000D01*
X123250000Y-85400000D02*
X123200000Y-85400000D01*
X142600000Y-95800000D02*
X142850000Y-96050000D01*
X132500000Y-86700000D02*
X134100000Y-86700000D01*
X137700000Y-93300000D02*
X138900000Y-93300000D01*
X137200000Y-85400000D02*
X137200000Y-86600000D01*
X125200000Y-86600000D02*
X124000000Y-86600000D01*
X141400000Y-81800000D02*
X137800000Y-85400000D01*
X126100000Y-85700000D02*
X125200000Y-86600000D01*
X140300000Y-93300000D02*
X141800000Y-93300000D01*
X136100000Y-92700000D02*
X122300000Y-92700000D01*
X136700000Y-93300000D02*
X137700000Y-93300000D01*
X124000000Y-86600000D02*
X123250000Y-85850000D01*
X143150000Y-71200000D02*
X143150000Y-72650000D01*
X123250000Y-85850000D02*
X123250000Y-85400000D01*
X137700000Y-94900000D02*
X137700000Y-93300000D01*
X134400000Y-89400000D02*
X134400000Y-91000000D01*
X135400000Y-85400000D02*
X137200000Y-85400000D01*
X138800000Y-93400000D02*
X138900000Y-93300000D01*
X141400000Y-74400000D02*
X141400000Y-81800000D01*
X138900000Y-93300000D02*
X140300000Y-93300000D01*
%TO.N,GND*%
X122600000Y-82400000D02*
X121200000Y-83800000D01*
X126200000Y-67800000D02*
X126200000Y-72400000D01*
X123400000Y-81600000D02*
X122600000Y-82400000D01*
X141590000Y-98930000D02*
X140130000Y-98930000D01*
X136600000Y-67800000D02*
X136600000Y-68800000D01*
X143500000Y-97550000D02*
X142050000Y-97550000D01*
X138900000Y-79200000D02*
X136900000Y-77200000D01*
X140900000Y-97300000D02*
X140130000Y-98070000D01*
X142700049Y-92050000D02*
X143500000Y-92050000D01*
X136600000Y-65000000D02*
X134000000Y-65000000D01*
X126800000Y-102800000D02*
X128000000Y-102800000D01*
X139490000Y-90310000D02*
X141230000Y-90310000D01*
X140130000Y-98070000D02*
X140130000Y-98930000D01*
X141650000Y-66800000D02*
X141650000Y-66450000D01*
X121200000Y-84800000D02*
X124000000Y-87600000D01*
X125875000Y-89875000D02*
X127112500Y-89875000D01*
X122600000Y-88000000D02*
X120400000Y-90200000D01*
X140200000Y-65000000D02*
X137800000Y-65000000D01*
X130000000Y-72400000D02*
X126200000Y-72400000D01*
X137800000Y-70000000D02*
X137800000Y-71175000D01*
X124800000Y-84600000D02*
X122600000Y-82400000D01*
X131300000Y-86200000D02*
X131550000Y-86450000D01*
X132800000Y-65000000D02*
X131600000Y-66200000D01*
X141800000Y-97300000D02*
X140900000Y-97300000D01*
X137800000Y-66800000D02*
X137800000Y-65000000D01*
X137800000Y-71175000D02*
X137775000Y-71200000D01*
X131600000Y-66200000D02*
X131600000Y-70800000D01*
X131600000Y-70800000D02*
X130000000Y-72400000D01*
X137800000Y-65000000D02*
X136600000Y-65000000D01*
X124800000Y-85400000D02*
X124800000Y-84600000D01*
X136600000Y-68800000D02*
X137800000Y-70000000D01*
X137200000Y-67800000D02*
X139200000Y-69800000D01*
X124000000Y-87600000D02*
X124000000Y-88000000D01*
X126200000Y-86400000D02*
X128200000Y-86400000D01*
X134000000Y-65000000D02*
X132800000Y-65000000D01*
X123400000Y-77200000D02*
X123400000Y-81600000D01*
X128000000Y-102800000D02*
X129600000Y-101200000D01*
X139600000Y-86600000D02*
X139600000Y-90200000D01*
X120800000Y-100800000D02*
X121200000Y-101200000D01*
X139090000Y-99290000D02*
X139100000Y-99300000D01*
X128424695Y-88800000D02*
X129600000Y-88800000D01*
X125400000Y-88000000D02*
X125400000Y-89400000D01*
X141650000Y-66450000D02*
X140200000Y-65000000D01*
X129600000Y-88800000D02*
X130400000Y-89600000D01*
X133950000Y-66800000D02*
X133950000Y-65050000D01*
X128400000Y-86200000D02*
X128200000Y-86400000D01*
X135640000Y-99290000D02*
X139090000Y-99290000D01*
X139200000Y-69800000D02*
X141000000Y-69800000D01*
X136900000Y-77200000D02*
X123400000Y-77200000D01*
X141800000Y-91800000D02*
X142450049Y-91800000D01*
X126600000Y-101600000D02*
X126600000Y-102600000D01*
X126200000Y-72400000D02*
X125000000Y-72400000D01*
X139470000Y-98930000D02*
X139100000Y-99300000D01*
X123400000Y-74000000D02*
X123400000Y-77200000D01*
X141800000Y-90880000D02*
X141590000Y-90670000D01*
X133950000Y-65050000D02*
X134000000Y-65000000D01*
X120400000Y-96000000D02*
X120800000Y-96400000D01*
X140130000Y-98930000D02*
X139470000Y-98930000D01*
X126200000Y-101200000D02*
X126600000Y-101600000D01*
X141800000Y-91800000D02*
X141800000Y-90880000D01*
X135640000Y-90310000D02*
X139490000Y-90310000D01*
X124000000Y-88000000D02*
X122600000Y-88000000D01*
X125400000Y-87200000D02*
X126200000Y-86400000D01*
X125000000Y-72400000D02*
X123400000Y-74000000D01*
X126600000Y-102600000D02*
X126800000Y-102800000D01*
X132546396Y-99290000D02*
X135640000Y-99290000D01*
X141600000Y-70400000D02*
X141600000Y-71200000D01*
X130636396Y-101200000D02*
X132546396Y-99290000D01*
X141230000Y-90310000D02*
X141590000Y-90670000D01*
X120800000Y-96400000D02*
X120800000Y-100800000D01*
X130400000Y-89600000D02*
X132200000Y-91400000D01*
X130600000Y-86200000D02*
X128400000Y-86200000D01*
X124000000Y-88000000D02*
X125400000Y-88000000D01*
X139600000Y-90200000D02*
X139490000Y-90310000D01*
X125400000Y-87200000D02*
X125400000Y-88000000D01*
X129600000Y-101200000D02*
X130636396Y-101200000D01*
X136600000Y-67800000D02*
X137200000Y-67800000D01*
X128000000Y-88375305D02*
X128424695Y-88800000D01*
X121200000Y-101200000D02*
X126200000Y-101200000D01*
X121200000Y-83800000D02*
X121200000Y-84800000D01*
X125400000Y-89400000D02*
X125875000Y-89875000D01*
X141000000Y-69800000D02*
X141600000Y-70400000D01*
X136600000Y-65000000D02*
X136600000Y-67800000D01*
X128200000Y-86400000D02*
X128000000Y-86600000D01*
X128000000Y-86600000D02*
X128000000Y-88375305D01*
X142450049Y-91800000D02*
X142700049Y-92050000D01*
X120400000Y-90200000D02*
X120400000Y-96000000D01*
X130600000Y-86200000D02*
X131300000Y-86200000D01*
X142050000Y-97550000D02*
X141800000Y-97300000D01*
%TO.N,Net-(C3-Pad1)*%
X132750000Y-85700000D02*
X133850000Y-84600000D01*
X132500000Y-85700000D02*
X132750000Y-85700000D01*
%TO.N,Net-(C3-Pad2)*%
X132500000Y-86200000D02*
X133800000Y-86200000D01*
X133800000Y-86200000D02*
X135400000Y-84600000D01*
%TO.N,Net-(C4-Pad1)*%
X130400000Y-91150000D02*
X130350000Y-91150000D01*
X129900000Y-86700000D02*
X130600000Y-86700000D01*
X130350000Y-91150000D02*
X129000000Y-89800000D01*
X129000000Y-87200000D02*
X129400000Y-87200000D01*
X129400000Y-87200000D02*
X129900000Y-86700000D01*
%TO.N,Net-(C5-Pad1)*%
X130600000Y-94400000D02*
X130600000Y-100600000D01*
X129000000Y-91000000D02*
X129000000Y-91600000D01*
X128525000Y-90525000D02*
X129000000Y-91000000D01*
X121350000Y-99550000D02*
X121350000Y-100350000D01*
X127112500Y-90525000D02*
X128525000Y-90525000D01*
X127400000Y-100600000D02*
X130600000Y-100600000D01*
X121400000Y-99600000D02*
X121350000Y-99550000D01*
X121350000Y-95400000D02*
X121350000Y-99550000D01*
X123450000Y-99600000D02*
X121400000Y-99600000D01*
X121600000Y-100600000D02*
X127400000Y-100600000D01*
X127400000Y-102000000D02*
X127400000Y-100600000D01*
X121350000Y-100350000D02*
X121600000Y-100600000D01*
%TO.N,Net-(C5-Pad2)*%
X121000000Y-92400000D02*
X123000000Y-94400000D01*
X127400000Y-98400000D02*
X127400000Y-99600000D01*
X122887500Y-89875000D02*
X121925000Y-89875000D01*
X121925000Y-89875000D02*
X121000000Y-90800000D01*
X124600000Y-98000000D02*
X125000000Y-98000000D01*
X125000000Y-99600000D02*
X125000000Y-98000000D01*
X123000000Y-96400000D02*
X124600000Y-98000000D01*
X125000000Y-98000000D02*
X127000000Y-98000000D01*
X127000000Y-98000000D02*
X127400000Y-98400000D01*
X121000000Y-90800000D02*
X121000000Y-92400000D01*
X123000000Y-94400000D02*
X123000000Y-95400000D01*
X123000000Y-95400000D02*
X123000000Y-96400000D01*
%TO.N,-5V*%
X130600000Y-87200000D02*
X130600000Y-88600000D01*
X127200000Y-88000000D02*
X127200000Y-89137500D01*
X127200000Y-89137500D02*
X127112500Y-89225000D01*
X132200000Y-64400000D02*
X131600000Y-65000000D01*
X143200000Y-66800000D02*
X140800000Y-64400000D01*
X131200000Y-88800000D02*
X131200000Y-89600000D01*
X130400000Y-73400000D02*
X130400000Y-73200000D01*
X134000000Y-88200000D02*
X134200000Y-88000000D01*
X131200000Y-89600000D02*
X133400000Y-89600000D01*
X134200000Y-88800000D02*
X134200000Y-88000000D01*
X135650000Y-86600000D02*
X135600000Y-86600000D01*
X133400000Y-89600000D02*
X134200000Y-88800000D01*
X130400000Y-73400000D02*
X130400000Y-76200000D01*
X135600000Y-86600000D02*
X134200000Y-88000000D01*
X140800000Y-64400000D02*
X132200000Y-64400000D01*
X130400000Y-73200000D02*
X131900000Y-71700000D01*
X131000000Y-88600000D02*
X131200000Y-88800000D01*
X130600000Y-88600000D02*
X131000000Y-88600000D01*
%TO.N,Net-(C7-Pad1)*%
X128750000Y-99300000D02*
X129050000Y-99600000D01*
X128750000Y-95200000D02*
X128750000Y-99300000D01*
%TO.N,/OUTPUT0*%
X125800000Y-95200000D02*
X125800000Y-97000000D01*
X136500000Y-81200000D02*
X136500000Y-80900000D01*
X135600000Y-66800000D02*
X135600000Y-69000000D01*
X136500000Y-80900000D02*
X134200000Y-78600000D01*
%TO.N,Net-(J1-PadA5)*%
X139400000Y-66850000D02*
X139450000Y-66800000D01*
X143400000Y-73600000D02*
X144200000Y-72800000D01*
X144200000Y-70200000D02*
X142800000Y-68800000D01*
X140400000Y-68800000D02*
X139400000Y-67800000D01*
X144175000Y-94025000D02*
X144175000Y-88775000D01*
X143400000Y-88000000D02*
X143400000Y-73600000D01*
X142800000Y-68800000D02*
X140400000Y-68800000D01*
X144175000Y-88775000D02*
X143400000Y-88000000D01*
X143500000Y-94050000D02*
X144150000Y-94050000D01*
X144150000Y-94050000D02*
X144175000Y-94025000D01*
X139400000Y-67800000D02*
X139400000Y-66850000D01*
X144200000Y-72800000D02*
X144200000Y-70200000D01*
%TO.N,Net-(J1-PadB5)*%
X141250000Y-88350000D02*
X141200000Y-88400000D01*
X140925000Y-95325000D02*
X141400000Y-95325000D01*
X141250000Y-86600000D02*
X141250000Y-88350000D01*
X140000000Y-94400000D02*
X140925000Y-95325000D01*
%TO.N,/INPUT0*%
X125750000Y-102000000D02*
X124200000Y-102000000D01*
X128740000Y-71060000D02*
X128200000Y-71600000D01*
X128740000Y-67800000D02*
X128740000Y-71060000D01*
%TO.N,Net-(R5-Pad1)*%
X137400000Y-75400000D02*
X139200000Y-77200000D01*
X132050000Y-73400000D02*
X137400000Y-73400000D01*
X132500000Y-88100000D02*
X132200000Y-88400000D01*
X137400000Y-73400000D02*
X138000000Y-73400000D01*
X139425000Y-71975000D02*
X139425000Y-71200000D01*
X139475000Y-82925000D02*
X133125000Y-82925000D01*
X140800000Y-81600000D02*
X139475000Y-82925000D01*
X133125000Y-82925000D02*
X133000000Y-82800000D01*
X140200000Y-77200000D02*
X140800000Y-77800000D01*
X140800000Y-77800000D02*
X140800000Y-81600000D01*
X132500000Y-87200000D02*
X132500000Y-88100000D01*
X138000000Y-73400000D02*
X139425000Y-71975000D01*
X139200000Y-77200000D02*
X140200000Y-77200000D01*
X137400000Y-73400000D02*
X137400000Y-75400000D01*
%TD*%
M02*
